<svg xmlns="http://www.w3.org/2000/svg" xmlns:xlink="http://www.w3.org/1999/xlink" width="500" zoomAndPan="magnify" viewBox="0 0 375 374.999991" height="500" preserveAspectRatio="xMidYMid meet" version="1.0"><defs><g/><clipPath id="d1a696d9bb"><path d="M 95.992188 88.167969 L 278.992188 88.167969 L 278.992188 154.167969 L 95.992188 154.167969 Z M 95.992188 88.167969 " clip-rule="nonzero"/></clipPath><clipPath id="b1df608e9f"><path d="M 95.992188 211.875 L 278.992188 211.875 L 278.992188 277.6875 L 95.992188 277.6875 Z M 95.992188 211.875 " clip-rule="nonzero"/></clipPath><clipPath id="9924e04d14"><path d="M 232.734375 180.585938 L 323.484375 180.585938 L 323.484375 198.585938 L 232.734375 198.585938 Z M 232.734375 180.585938 " clip-rule="nonzero"/></clipPath><clipPath id="81f6940646"><path d="M 39.75 179.085938 L 133.5 179.085938 L 133.5 196.335938 L 39.75 196.335938 Z M 39.75 179.085938 " clip-rule="nonzero"/></clipPath></defs><g fill="#000000" fill-opacity="1"><g transform="translate(133.418786, 201.186416)"><g><path d="M 19.390625 -15.671875 C 19.691406 -15.410156 19.71875 -15.15625 19.46875 -14.90625 C 19.414062 -14.800781 18.664062 -14.050781 17.21875 -12.65625 C 15.78125 -11.269531 13.335938 -9.710938 9.890625 -7.984375 C 9.984375 -7.523438 10.054688 -7.066406 10.109375 -6.609375 C 10.160156 -6.160156 10.210938 -5.65625 10.265625 -5.09375 C 10.367188 -2.300781 10.015625 -0.171875 9.203125 1.296875 C 8.390625 2.765625 7.550781 3.851562 6.6875 4.5625 C 5.269531 5.570312 3.75 6.078125 2.125 6.078125 C 1.363281 6.078125 0.707031 5.976562 0.15625 5.78125 C -0.550781 5.625 -1.109375 5.367188 -1.515625 5.015625 C -2.585938 4.109375 -2.96875 2.71875 -2.65625 0.84375 C -2.40625 -0.832031 -1.617188 -2.351562 -0.296875 -3.71875 C 1.015625 -5.09375 2.6875 -6.1875 4.71875 -7 C 4.363281 -8.164062 3.894531 -9.242188 3.3125 -10.234375 C 2.726562 -11.222656 2.128906 -12.144531 1.515625 -13 C 0.804688 -14.019531 0.140625 -15.0625 -0.484375 -16.125 C -1.117188 -17.1875 -1.566406 -18.378906 -1.828125 -19.703125 C -2.378906 -23.097656 -1.691406 -26.035156 0.234375 -28.515625 C 1.898438 -30.648438 3.925781 -31.789062 6.3125 -31.9375 C 7.632812 -32.039062 8.75 -31.738281 9.65625 -31.03125 L 9.65625 -30.953125 L 9.734375 -30.953125 C 9.890625 -30.796875 10.054688 -30.640625 10.234375 -30.484375 C 10.410156 -30.335938 10.546875 -30.164062 10.640625 -29.96875 C 11.203125 -29.15625 11.546875 -28.175781 11.671875 -27.03125 C 11.796875 -25.894531 11.65625 -24.867188 11.25 -23.953125 C 11.101562 -23.648438 10.851562 -23.550781 10.5 -23.65625 C 10.1875 -23.851562 10.109375 -24.101562 10.265625 -24.40625 C 10.566406 -25.164062 10.664062 -26.003906 10.5625 -26.921875 C 10.46875 -27.835938 10.191406 -28.625 9.734375 -29.28125 C 9.679688 -29.425781 9.578125 -29.5625 9.421875 -29.6875 C 9.273438 -29.820312 9.125 -29.9375 8.96875 -30.03125 C 8.71875 -30.238281 8.425781 -30.289062 8.09375 -30.1875 C 7.769531 -30.082031 7.503906 -29.984375 7.296875 -29.890625 C 6.234375 -29.328125 5.269531 -28.296875 4.40625 -26.796875 C 3.550781 -25.304688 3.144531 -23.722656 3.1875 -22.046875 C 3.289062 -20.984375 3.609375 -19.96875 4.140625 -19 C 4.671875 -18.039062 5.289062 -17.03125 6 -15.96875 C 6.664062 -15.007812 7.328125 -13.96875 7.984375 -12.84375 C 8.640625 -11.726562 9.171875 -10.488281 9.578125 -9.125 C 12.828125 -10.75 15.132812 -12.21875 16.5 -13.53125 C 17.875 -14.851562 18.582031 -15.539062 18.625 -15.59375 C 18.832031 -15.84375 19.085938 -15.867188 19.390625 -15.671875 Z M 2.359375 4.484375 C 2.960938 4.179688 3.609375 3.445312 4.296875 2.28125 C 4.984375 1.113281 5.273438 -0.960938 5.171875 -3.953125 C 5.171875 -4.609375 5.09375 -5.242188 4.9375 -5.859375 C 3.164062 -5.148438 1.820312 -4.328125 0.90625 -3.390625 C 0 -2.453125 -0.613281 -1.578125 -0.9375 -0.765625 C -1.269531 0.046875 -1.460938 0.628906 -1.515625 0.984375 C -1.773438 2.453125 -1.523438 3.519531 -0.765625 4.1875 C -0.410156 4.4375 0.0546875 4.625 0.640625 4.75 C 1.222656 4.875 1.796875 4.785156 2.359375 4.484375 Z M 2.359375 4.484375 "/></g></g></g><g fill="#000000" fill-opacity="1"><g transform="translate(151.745136, 201.186416)"><g><path d="M 27.296875 -15.734375 C 27.648438 -15.640625 27.78125 -15.390625 27.6875 -14.984375 C 27.632812 -14.878906 27.378906 -14.296875 26.921875 -13.234375 C 26.460938 -12.171875 25.851562 -10.890625 25.09375 -9.390625 C 24.332031 -7.890625 23.457031 -6.414062 22.46875 -4.96875 C 21.476562 -3.53125 20.425781 -2.378906 19.3125 -1.515625 C 19.3125 -1.460938 19.285156 -1.4375 19.234375 -1.4375 C 19.234375 -1.4375 19.1875 -1.390625 19.09375 -1.296875 C 18.882812 -1.140625 18.640625 -1 18.359375 -0.875 C 18.085938 -0.75 17.820312 -0.632812 17.5625 -0.53125 C 17.15625 -0.332031 16.648438 -0.234375 16.046875 -0.234375 C 15.234375 -0.234375 14.5 -0.484375 13.84375 -0.984375 C 12.875 -1.742188 12.132812 -2.894531 11.625 -4.4375 C 11.125 -5.988281 10.8125 -7.675781 10.6875 -9.5 C 10.5625 -11.332031 10.570312 -13.054688 10.71875 -14.671875 L 10.71875 -14.90625 L 10.796875 -14.90625 L 10.796875 -14.984375 L 10.875 -15.0625 L 10.953125 -15.0625 L 10.953125 -15.140625 L 11.03125 -15.140625 L 11.109375 -15.203125 L 11.171875 -15.203125 C 12.953125 -15.515625 14.472656 -16.453125 15.734375 -18.015625 C 17.003906 -19.585938 17.945312 -21.132812 18.5625 -22.65625 C 18.957031 -23.675781 19.179688 -24.5 19.234375 -25.125 C 19.285156 -25.757812 19.257812 -26.128906 19.15625 -26.234375 C 19.0625 -26.441406 18.910156 -26.546875 18.703125 -26.546875 C 18.347656 -26.546875 18.019531 -26.367188 17.71875 -26.015625 C 16.757812 -25.097656 15.742188 -23.976562 14.671875 -22.65625 C 13.609375 -21.34375 12.519531 -19.875 11.40625 -18.25 C 9.28125 -15.207031 7.457031 -12.148438 5.9375 -9.078125 C 4.414062 -6.015625 3.375 -3.289062 2.8125 -0.90625 C 2.5625 0.96875 2.347656 2.625 2.171875 4.0625 C 1.992188 5.507812 1.851562 6.71875 1.75 7.6875 C 1.75 8.1875 1.546875 8.566406 1.140625 8.828125 C 0.785156 9.078125 0.457031 9.203125 0.15625 9.203125 C 0 9.203125 -0.101562 9.175781 -0.15625 9.125 L -1.140625 8.96875 C -1.796875 8.875 -2.3125 8.554688 -2.6875 8.015625 C -3.070312 7.484375 -3.238281 6.890625 -3.1875 6.234375 C -2.175781 -3.140625 -0.8125 -11.769531 0.90625 -19.65625 C 2.632812 -27.539062 4.664062 -34.398438 7 -40.234375 C 8.875 -44.890625 10.863281 -48.726562 12.96875 -51.75 C 15.070312 -54.769531 17.113281 -56.707031 19.09375 -57.5625 C 20.101562 -58.019531 20.945312 -58.1875 21.625 -58.0625 C 22.3125 -57.9375 22.832031 -57.722656 23.1875 -57.421875 C 24.050781 -56.804688 24.5625 -55.816406 24.71875 -54.453125 C 24.769531 -54.148438 24.796875 -53.832031 24.796875 -53.5 C 24.796875 -53.164062 24.796875 -52.820312 24.796875 -52.46875 L 24.796875 -52.3125 C 24.390625 -48.363281 22.460938 -43.019531 19.015625 -36.28125 C 17.140625 -32.726562 15.007812 -29.140625 12.625 -25.515625 C 10.238281 -21.890625 7.78125 -18.53125 5.25 -15.4375 C 4.945312 -13.96875 4.664062 -12.507812 4.40625 -11.0625 C 4.15625 -9.613281 3.90625 -8.234375 3.65625 -6.921875 C 4.507812 -8.796875 5.503906 -10.757812 6.640625 -12.8125 C 7.785156 -14.863281 9.070312 -16.90625 10.5 -18.9375 C 11.5625 -20.507812 12.710938 -22.054688 13.953125 -23.578125 C 15.191406 -25.097656 16.421875 -26.425781 17.640625 -27.5625 C 18.859375 -28.707031 19.925781 -29.429688 20.84375 -29.734375 C 21.289062 -29.890625 21.664062 -29.925781 21.96875 -29.84375 C 22.28125 -29.769531 22.507812 -29.65625 22.65625 -29.5 C 23.46875 -28.84375 23.910156 -27.71875 23.984375 -26.125 C 24.066406 -24.53125 23.753906 -22.894531 23.046875 -21.21875 C 21.578125 -17.664062 19.066406 -15.410156 15.515625 -14.453125 C 15.265625 -10.898438 15.351562 -8.046875 15.78125 -5.890625 C 16.207031 -3.734375 16.753906 -2.453125 17.421875 -2.046875 C 17.515625 -2.003906 17.648438 -1.984375 17.828125 -1.984375 C 18.003906 -1.984375 18.25 -2.109375 18.5625 -2.359375 L 18.625 -2.359375 C 19.644531 -3.171875 20.632812 -4.285156 21.59375 -5.703125 C 22.5625 -7.117188 23.410156 -8.5625 24.140625 -10.03125 C 24.878906 -11.507812 25.472656 -12.765625 25.921875 -13.796875 C 26.378906 -14.835938 26.609375 -15.382812 26.609375 -15.4375 C 26.710938 -15.738281 26.941406 -15.835938 27.296875 -15.734375 Z M 7.21875 -23.796875 L 5.78125 -17.953125 C 8.164062 -20.992188 10.394531 -24.132812 12.46875 -27.375 C 14.550781 -30.625 16.398438 -33.816406 18.015625 -36.953125 C 19.640625 -40.097656 20.945312 -43 21.9375 -45.65625 C 22.925781 -48.320312 23.5 -50.59375 23.65625 -52.46875 C 23.65625 -52.519531 23.613281 -52.925781 23.53125 -53.6875 C 23.457031 -54.445312 23.066406 -54.953125 22.359375 -55.203125 C 22.304688 -55.203125 22.253906 -55.210938 22.203125 -55.234375 C 22.148438 -55.265625 22.097656 -55.28125 22.046875 -55.28125 C 21.796875 -55.28125 21.519531 -55.207031 21.21875 -55.0625 C 20.300781 -54.550781 19.257812 -53.382812 18.09375 -51.5625 C 16.925781 -49.738281 15.707031 -47.414062 14.4375 -44.59375 C 13.175781 -41.78125 11.925781 -38.597656 10.6875 -35.046875 C 9.445312 -31.503906 8.289062 -27.753906 7.21875 -23.796875 Z M 7.21875 -23.796875 "/></g></g></g><g fill="#000000" fill-opacity="1"><g transform="translate(178.28412, 201.186416)"><g><path d="M 1.90625 -1.828125 C 0.988281 -2.128906 0.300781 -2.785156 -0.15625 -3.796875 C -0.757812 -5.117188 -1 -6.84375 -0.875 -8.96875 C -0.75 -11.101562 -0.429688 -13.347656 0.078125 -15.703125 C 0.585938 -18.054688 1.144531 -20.222656 1.75 -22.203125 C 2.351562 -24.179688 2.882812 -25.675781 3.34375 -26.6875 C 3.5 -27.195312 3.828125 -27.53125 4.328125 -27.6875 C 4.890625 -27.78125 5.347656 -27.703125 5.703125 -27.453125 L 6.921875 -26.6875 C 7.472656 -26.332031 7.847656 -25.828125 8.046875 -25.171875 C 8.253906 -24.515625 8.234375 -23.878906 7.984375 -23.265625 C 7.171875 -21.390625 6.367188 -19.144531 5.578125 -16.53125 C 4.796875 -13.925781 4.28125 -11.484375 4.03125 -9.203125 C 3.875 -7.429688 3.921875 -6.085938 4.171875 -5.171875 C 4.429688 -4.253906 4.6875 -3.722656 4.9375 -3.578125 C 5.039062 -3.472656 5.195312 -3.5 5.40625 -3.65625 L 5.46875 -3.65625 C 6.582031 -4.457031 7.6875 -5.582031 8.78125 -7.03125 C 9.875 -8.476562 10.863281 -9.972656 11.75 -11.515625 C 12.632812 -13.066406 13.304688 -14.320312 13.765625 -15.28125 C 13.816406 -15.382812 13.914062 -15.472656 14.0625 -15.546875 C 14.21875 -15.628906 14.347656 -15.617188 14.453125 -15.515625 C 14.804688 -15.304688 14.90625 -15.050781 14.75 -14.75 C 14.75 -14.75 14.351562 -14 13.5625 -12.5 C 12.78125 -11.007812 11.804688 -9.40625 10.640625 -7.6875 C 7.859375 -3.675781 5.328125 -1.671875 3.046875 -1.671875 C 2.835938 -1.671875 2.644531 -1.679688 2.46875 -1.703125 C 2.289062 -1.734375 2.101562 -1.773438 1.90625 -1.828125 Z M 8.21875 -29.4375 L 7.296875 -29.96875 C 6.691406 -30.269531 6.285156 -30.722656 6.078125 -31.328125 C 5.878906 -31.941406 5.90625 -32.550781 6.15625 -33.15625 L 8.0625 -37.265625 C 8.3125 -37.671875 8.664062 -37.960938 9.125 -38.140625 C 9.582031 -38.316406 10.066406 -38.28125 10.578125 -38.03125 L 10.796875 -37.953125 C 11.765625 -37.441406 12.453125 -36.726562 12.859375 -35.8125 C 13.054688 -34.90625 12.953125 -33.992188 12.546875 -33.078125 L 10.796875 -30.109375 C 10.546875 -29.554688 10.015625 -29.28125 9.203125 -29.28125 C 9.046875 -29.28125 8.890625 -29.289062 8.734375 -29.3125 C 8.585938 -29.34375 8.414062 -29.382812 8.21875 -29.4375 Z M 8.21875 -29.4375 "/></g></g></g><g fill="#000000" fill-opacity="1"><g transform="translate(191.971848, 201.186416)"><g><path d="M 21.21875 -15.734375 C 21.519531 -15.535156 21.59375 -15.285156 21.4375 -14.984375 C 21.394531 -14.828125 21.039062 -14.128906 20.375 -12.890625 C 19.71875 -11.648438 18.867188 -10.128906 17.828125 -8.328125 C 16.796875 -6.523438 15.65625 -4.710938 14.40625 -2.890625 C 13.164062 -1.066406 11.890625 0.453125 10.578125 1.671875 C 9.710938 2.484375 8.925781 3.09375 8.21875 3.5 C 7.601562 3.800781 6.863281 3.953125 6 3.953125 C 5.34375 3.953125 4.632812 3.828125 3.875 3.578125 C 3.375 3.367188 2.816406 3.007812 2.203125 2.5 C 1.597656 2 1.09375 1.242188 0.6875 0.234375 C -0.78125 -3.878906 -0.804688 -10.625 0.609375 -20 C 1.617188 -26.644531 2.867188 -32.640625 4.359375 -37.984375 C 5.859375 -43.335938 7.507812 -47.734375 9.3125 -51.171875 C 11.113281 -54.617188 12.953125 -56.851562 14.828125 -57.875 C 16.242188 -58.582031 17.585938 -58.632812 18.859375 -58.03125 C 20.023438 -57.46875 20.707031 -56.476562 20.90625 -55.0625 L 20.984375 -54.984375 C 21.285156 -53.410156 21.171875 -51.421875 20.640625 -49.015625 C 20.109375 -46.609375 19.296875 -44.007812 18.203125 -41.21875 C 17.117188 -38.425781 15.863281 -35.632812 14.4375 -32.84375 C 13.019531 -30.0625 11.578125 -27.503906 10.109375 -25.171875 C 8.640625 -22.835938 7.25 -20.960938 5.9375 -19.546875 C 5.9375 -19.492188 5.910156 -19.46875 5.859375 -19.46875 C 5.242188 -15.457031 4.875 -12.160156 4.75 -9.578125 C 4.625 -6.992188 4.675781 -4.941406 4.90625 -3.421875 C 5.132812 -1.898438 5.4375 -0.785156 5.8125 -0.078125 C 6.195312 0.628906 6.566406 1.113281 6.921875 1.375 C 7.578125 1.726562 8.222656 1.726562 8.859375 1.375 C 9.492188 1.019531 9.8125 0.84375 9.8125 0.84375 L 9.890625 0.84375 C 11.109375 -0.375 12.335938 -1.882812 13.578125 -3.6875 C 14.816406 -5.488281 15.957031 -7.285156 17 -9.078125 C 18.039062 -10.878906 18.875 -12.390625 19.5 -13.609375 C 20.132812 -14.828125 20.453125 -15.4375 20.453125 -15.4375 C 20.660156 -15.789062 20.914062 -15.890625 21.21875 -15.734375 Z M 6.6875 -24.1875 L 6.234375 -21.59375 C 7.453125 -23.164062 8.742188 -25.078125 10.109375 -27.328125 C 11.484375 -29.585938 12.800781 -32.007812 14.0625 -34.59375 C 15.332031 -37.1875 16.445312 -39.757812 17.40625 -42.3125 C 18.375 -44.875 19.085938 -47.242188 19.546875 -49.421875 C 20.003906 -51.609375 20.101562 -53.382812 19.84375 -54.75 C 19.75 -55.15625 19.472656 -55.332031 19.015625 -55.28125 C 18.398438 -55.28125 17.609375 -54.796875 16.640625 -53.828125 C 15.679688 -52.867188 14.644531 -51.234375 13.53125 -48.921875 C 12.414062 -46.617188 11.265625 -43.453125 10.078125 -39.421875 C 8.890625 -35.398438 7.757812 -30.320312 6.6875 -24.1875 Z M 6.6875 -24.1875 "/></g></g></g><g fill="#000000" fill-opacity="1"><g transform="translate(212.275313, 201.186416)"><g><path d="M 21.21875 -15.734375 C 21.519531 -15.535156 21.59375 -15.285156 21.4375 -14.984375 C 21.394531 -14.828125 21.039062 -14.128906 20.375 -12.890625 C 19.71875 -11.648438 18.867188 -10.128906 17.828125 -8.328125 C 16.796875 -6.523438 15.65625 -4.710938 14.40625 -2.890625 C 13.164062 -1.066406 11.890625 0.453125 10.578125 1.671875 C 9.710938 2.484375 8.925781 3.09375 8.21875 3.5 C 7.601562 3.800781 6.863281 3.953125 6 3.953125 C 5.34375 3.953125 4.632812 3.828125 3.875 3.578125 C 3.375 3.367188 2.816406 3.007812 2.203125 2.5 C 1.597656 2 1.09375 1.242188 0.6875 0.234375 C -0.78125 -3.878906 -0.804688 -10.625 0.609375 -20 C 1.617188 -26.644531 2.867188 -32.640625 4.359375 -37.984375 C 5.859375 -43.335938 7.507812 -47.734375 9.3125 -51.171875 C 11.113281 -54.617188 12.953125 -56.851562 14.828125 -57.875 C 16.242188 -58.582031 17.585938 -58.632812 18.859375 -58.03125 C 20.023438 -57.46875 20.707031 -56.476562 20.90625 -55.0625 L 20.984375 -54.984375 C 21.285156 -53.410156 21.171875 -51.421875 20.640625 -49.015625 C 20.109375 -46.609375 19.296875 -44.007812 18.203125 -41.21875 C 17.117188 -38.425781 15.863281 -35.632812 14.4375 -32.84375 C 13.019531 -30.0625 11.578125 -27.503906 10.109375 -25.171875 C 8.640625 -22.835938 7.25 -20.960938 5.9375 -19.546875 C 5.9375 -19.492188 5.910156 -19.46875 5.859375 -19.46875 C 5.242188 -15.457031 4.875 -12.160156 4.75 -9.578125 C 4.625 -6.992188 4.675781 -4.941406 4.90625 -3.421875 C 5.132812 -1.898438 5.4375 -0.785156 5.8125 -0.078125 C 6.195312 0.628906 6.566406 1.113281 6.921875 1.375 C 7.578125 1.726562 8.222656 1.726562 8.859375 1.375 C 9.492188 1.019531 9.8125 0.84375 9.8125 0.84375 L 9.890625 0.84375 C 11.109375 -0.375 12.335938 -1.882812 13.578125 -3.6875 C 14.816406 -5.488281 15.957031 -7.285156 17 -9.078125 C 18.039062 -10.878906 18.875 -12.390625 19.5 -13.609375 C 20.132812 -14.828125 20.453125 -15.4375 20.453125 -15.4375 C 20.660156 -15.789062 20.914062 -15.890625 21.21875 -15.734375 Z M 6.6875 -24.1875 L 6.234375 -21.59375 C 7.453125 -23.164062 8.742188 -25.078125 10.109375 -27.328125 C 11.484375 -29.585938 12.800781 -32.007812 14.0625 -34.59375 C 15.332031 -37.1875 16.445312 -39.757812 17.40625 -42.3125 C 18.375 -44.875 19.085938 -47.242188 19.546875 -49.421875 C 20.003906 -51.609375 20.101562 -53.382812 19.84375 -54.75 C 19.75 -55.15625 19.472656 -55.332031 19.015625 -55.28125 C 18.398438 -55.28125 17.609375 -54.796875 16.640625 -53.828125 C 15.679688 -52.867188 14.644531 -51.234375 13.53125 -48.921875 C 12.414062 -46.617188 11.265625 -43.453125 10.078125 -39.421875 C 8.890625 -35.398438 7.757812 -30.320312 6.6875 -24.1875 Z M 6.6875 -24.1875 "/></g></g></g><g clip-path="url(#d1a696d9bb)"><path fill="#000000" d="M 187.492188 88.1875 C 214.140625 88.1875 238.261719 99.019531 255.722656 116.53125 C 266.148438 126.984375 274.199219 139.820312 278.992188 154.15625 L 277.585938 154.15625 C 272.839844 140.191406 264.960938 127.683594 254.78125 117.476562 C 237.5625 100.207031 213.769531 89.523438 187.492188 89.523438 C 161.214844 89.523438 137.421875 100.207031 120.203125 117.476562 C 110.027344 127.683594 102.144531 140.191406 97.398438 154.15625 L 95.992188 154.15625 C 100.789062 139.824219 108.839844 126.988281 119.261719 116.53125 C 136.722656 99.019531 160.847656 88.1875 187.492188 88.1875 Z M 187.492188 88.1875 " fill-opacity="1" fill-rule="evenodd"/></g><g clip-path="url(#b1df608e9f)"><path fill="#000000" d="M 187.492188 277.667969 C 214.140625 277.667969 238.261719 266.835938 255.722656 249.324219 C 266.148438 238.871094 274.199219 226.035156 278.992188 211.699219 L 277.585938 211.699219 C 272.839844 225.664062 264.960938 238.171875 254.78125 248.378906 C 237.5625 265.648438 213.769531 276.332031 187.492188 276.332031 C 161.214844 276.332031 137.421875 265.648438 120.203125 248.378906 C 110.027344 238.171875 102.144531 225.664062 97.398438 211.699219 L 95.992188 211.699219 C 100.789062 226.03125 108.839844 238.867188 119.261719 249.324219 C 136.722656 266.835938 160.847656 277.667969 187.492188 277.667969 Z M 187.492188 277.667969 " fill-opacity="1" fill-rule="evenodd"/></g><g clip-path="url(#9924e04d14)"><path fill="#000000" d="M 229.175781 188.761719 C 230.636719 186.953125 233.558594 184.550781 236.914062 182.980469 C 240.269531 181.414062 244.074219 180.6875 248.347656 180.726562 C 252.617188 180.765625 257.355469 181.570312 263.136719 183.339844 C 268.914062 185.105469 275.738281 187.839844 281.835938 190.121094 C 287.933594 192.40625 293.320312 194.253906 298.453125 194.898438 C 303.589844 195.546875 308.484375 194.980469 312.199219 193.507812 C 315.902344 192.03125 318.425781 189.644531 319.917969 187.867188 C 321.40625 186.089844 321.863281 184.929688 322.371094 183.945312 C 322.867188 182.960938 323.414062 182.15625 323.640625 182.214844 C 323.871094 182.277344 323.789062 183.199219 323.394531 184.492188 C 322.996094 185.78125 322.28125 187.449219 320.402344 189.527344 C 318.527344 191.601562 315.46875 194.09375 312.339844 195.734375 C 309.210938 197.382812 305.992188 198.1875 301.582031 198.226562 C 297.164062 198.265625 291.550781 197.542969 285.890625 196.023438 C 280.226562 194.492188 274.527344 192.167969 268.867188 189.765625 C 263.203125 187.363281 257.582031 184.867188 252.148438 183.886719 C 246.707031 182.902344 241.453125 183.429688 237.449219 185.046875 C 233.449219 186.667969 230.707031 189.398438 229.285156 190.898438 C 227.875 192.40625 227.796875 192.683594 227.757812 192.226562 C 227.71875 191.769531 227.71875 190.570312 229.175781 188.761719 Z M 229.175781 188.761719 " fill-opacity="1" fill-rule="evenodd"/></g><g fill="#000000" fill-opacity="1"><g transform="translate(134.453621, 134.564434)"><g><path d="M 0.671875 -0.703125 L -4.84375 -6.03125 L -4.328125 -6.5625 L 1.1875 -1.234375 Z M 0.671875 -0.703125 "/></g></g></g><g fill="#000000" fill-opacity="1"><g transform="translate(139.125384, 129.841769)"><g><path d="M -2.546875 -5.96875 L 1.34375 -1.0625 L 0.765625 -0.609375 L -4 -6.609375 L -3.546875 -6.96875 L 4.390625 -5.125 L 0.421875 -10.125 L 1.015625 -10.59375 L 5.78125 -4.59375 L 5.265625 -4.1875 Z M -2.546875 -5.96875 "/></g></g></g><g fill="#000000" fill-opacity="1"><g transform="translate(148.923157, 122.529458)"><g><path d="M 2.125 -9.25 L -0.265625 -7.90625 L 3.1875 -1.8125 L 2.546875 -1.4375 L -0.90625 -7.53125 L -3.296875 -6.1875 L -3.625 -6.765625 L 1.796875 -9.828125 Z M 2.125 -9.25 "/></g></g></g><g fill="#000000" fill-opacity="1"><g transform="translate(158.204263, 117.600084)"><g><path d="M 5.453125 -2.84375 L 5.703125 -2.21875 L 0.90625 -0.34375 L -1.875 -7.5 L 2.828125 -9.328125 L 3.078125 -8.703125 L -0.921875 -7.15625 L 0.078125 -4.578125 L 3.5625 -5.9375 L 3.796875 -5.328125 L 0.3125 -3.96875 L 1.359375 -1.25 Z M 5.453125 -2.84375 "/></g></g></g><g fill="#000000" fill-opacity="1"><g transform="translate(168.095144, 114.066756)"><g><path d="M 0.9375 -0.21875 L -0.796875 -7.6875 L -0.0625 -7.859375 L 1.515625 -1.046875 L 5.84375 -2.046875 L 6 -1.390625 Z M 0.9375 -0.21875 "/></g></g></g><g fill="#000000" fill-opacity="1"><g transform="translate(178.116718, 112.024908)"><g><path d="M 0.96875 -0.078125 L 0.296875 -7.71875 L 1.046875 -7.796875 L 1.65625 -0.828125 L 6.0625 -1.203125 L 6.125 -0.53125 Z M 0.96875 -0.078125 "/></g></g></g><g fill="#000000" fill-opacity="1"><g transform="translate(188.392252, 111.466043)"><g><path d="M 0.96875 0.03125 L 1.203125 -7.640625 L 1.953125 -7.625 L 1.71875 0.046875 Z M 0.96875 0.03125 "/></g></g></g><g fill="#000000" fill-opacity="1"><g transform="translate(195.038456, 111.753166)"><g><path d="M 6.609375 -0.09375 C 5.785156 0.5625 4.914062 0.816406 4 0.671875 C 3.476562 0.585938 3.015625 0.398438 2.609375 0.109375 C 2.210938 -0.171875 1.882812 -0.515625 1.625 -0.921875 C 1.375 -1.335938 1.195312 -1.785156 1.09375 -2.265625 C 0.988281 -2.753906 0.972656 -3.238281 1.046875 -3.71875 C 1.128906 -4.21875 1.289062 -4.6875 1.53125 -5.125 C 1.78125 -5.5625 2.085938 -5.929688 2.453125 -6.234375 C 2.816406 -6.546875 3.226562 -6.773438 3.6875 -6.921875 C 4.15625 -7.066406 4.644531 -7.097656 5.15625 -7.015625 C 5.519531 -6.960938 5.847656 -6.867188 6.140625 -6.734375 C 6.441406 -6.597656 6.695312 -6.4375 6.90625 -6.25 C 7.125 -6.070312 7.304688 -5.867188 7.453125 -5.640625 C 7.597656 -5.410156 7.710938 -5.164062 7.796875 -4.90625 L 7.140625 -4.625 C 6.960938 -5.125 6.691406 -5.515625 6.328125 -5.796875 C 5.960938 -6.085938 5.53125 -6.269531 5.03125 -6.34375 C 4.613281 -6.414062 4.222656 -6.390625 3.859375 -6.265625 C 3.492188 -6.140625 3.164062 -5.945312 2.875 -5.6875 C 2.59375 -5.425781 2.359375 -5.113281 2.171875 -4.75 C 1.984375 -4.394531 1.859375 -4.015625 1.796875 -3.609375 C 1.734375 -3.179688 1.742188 -2.757812 1.828125 -2.34375 C 1.910156 -1.9375 2.054688 -1.566406 2.265625 -1.234375 C 2.472656 -0.910156 2.734375 -0.632812 3.046875 -0.40625 C 3.367188 -0.1875 3.734375 -0.046875 4.140625 0.015625 C 4.566406 0.078125 4.992188 0.0390625 5.421875 -0.09375 C 5.847656 -0.238281 6.285156 -0.5 6.734375 -0.875 L 6.9375 -2.140625 L 5.234375 -2.40625 L 5.328125 -2.984375 L 7.640625 -2.625 L 7.046875 1.109375 L 6.4375 1.015625 Z M 6.609375 -0.09375 "/></g></g></g><g fill="#000000" fill-opacity="1"><g transform="translate(206.471929, 113.894277)"><g><path d="M 6.046875 1.21875 L 5.84375 1.859375 L 0.921875 0.296875 L 3.25 -7.015625 L 8.0625 -5.484375 L 7.859375 -4.84375 L 3.765625 -6.15625 L 2.921875 -3.515625 L 6.5 -2.375 L 6.3125 -1.765625 L 2.734375 -2.90625 L 1.84375 -0.125 Z M 6.046875 1.21875 "/></g></g></g><g fill="#000000" fill-opacity="1"><g transform="translate(216.376191, 117.290916)"><g><path d="M 4.34375 -4.84375 L 1.53125 0.765625 L 0.859375 0.4375 L 4.296875 -6.421875 L 4.828125 -6.171875 L 6.5 1.828125 L 9.359375 -3.890625 L 10.046875 -3.546875 L 6.609375 3.3125 L 6 3.015625 Z M 4.34375 -4.84375 "/></g></g></g><g fill="#000000" fill-opacity="1"><g transform="translate(227.134483, 123.070784)"><g><path d="M 2.65625 -2.890625 C 2.925781 -3.253906 3.257812 -3.578125 3.65625 -3.859375 C 4.050781 -4.140625 4.476562 -4.332031 4.9375 -4.4375 C 5.40625 -4.550781 5.890625 -4.566406 6.390625 -4.484375 C 6.890625 -4.398438 7.367188 -4.191406 7.828125 -3.859375 C 8.390625 -3.453125 8.773438 -2.984375 8.984375 -2.453125 C 9.203125 -1.921875 9.265625 -1.382812 9.171875 -0.84375 L 8.46875 -0.875 C 8.507812 -1.15625 8.507812 -1.414062 8.46875 -1.65625 C 8.4375 -1.90625 8.363281 -2.128906 8.25 -2.328125 C 8.144531 -2.535156 8.019531 -2.722656 7.875 -2.890625 C 7.738281 -3.054688 7.585938 -3.203125 7.421875 -3.328125 C 7.035156 -3.597656 6.644531 -3.757812 6.25 -3.8125 C 5.851562 -3.875 5.46875 -3.851562 5.09375 -3.75 C 4.726562 -3.644531 4.382812 -3.472656 4.0625 -3.234375 C 3.738281 -2.992188 3.460938 -2.710938 3.234375 -2.390625 C 2.992188 -2.054688 2.816406 -1.6875 2.703125 -1.28125 C 2.597656 -0.882812 2.5625 -0.488281 2.59375 -0.09375 C 2.625 0.300781 2.726562 0.671875 2.90625 1.015625 C 3.082031 1.359375 3.335938 1.648438 3.671875 1.890625 C 3.847656 2.015625 4.039062 2.117188 4.25 2.203125 C 4.46875 2.296875 4.695312 2.359375 4.9375 2.390625 C 5.1875 2.421875 5.4375 2.414062 5.6875 2.375 C 5.9375 2.332031 6.1875 2.25 6.4375 2.125 L 6.734375 2.75 C 6.460938 2.914062 6.171875 3.023438 5.859375 3.078125 C 5.554688 3.128906 5.25 3.132812 4.9375 3.09375 C 4.625 3.050781 4.320312 2.96875 4.03125 2.84375 C 3.75 2.726562 3.488281 2.585938 3.25 2.421875 C 2.820312 2.109375 2.492188 1.734375 2.265625 1.296875 C 2.035156 0.859375 1.898438 0.394531 1.859375 -0.09375 C 1.828125 -0.582031 1.878906 -1.070312 2.015625 -1.5625 C 2.148438 -2.050781 2.363281 -2.492188 2.65625 -2.890625 Z M 2.65625 -2.890625 "/></g></g></g><g fill="#000000" fill-opacity="1"><g transform="translate(236.111322, 129.957127)"><g><path d="M 4.84375 3.8125 L 4.375 4.296875 L 0.6875 0.671875 L 6.0625 -4.796875 L 9.671875 -1.25 L 9.203125 -0.78125 L 6.140625 -3.796875 L 4.203125 -1.8125 L 6.875 0.8125 L 6.421875 1.265625 L 3.75 -1.359375 L 1.703125 0.71875 Z M 4.84375 3.8125 "/></g></g></g><g fill="#000000" fill-opacity="1"><g transform="translate(158.608591, 258.43643)"><g><path d="M 5.96875 -6.09375 L 6.65625 -5.875 L 6.859375 -2.953125 L 8.734375 -5.21875 L 9.421875 -5 L 7.15625 -2.28125 L 7.5 1.46875 L 12.21875 -4.171875 L 12.984375 -3.921875 L 7.5625 2.40625 L 6.921875 2.203125 L 6.546875 -1.90625 L 3.84375 1.21875 L 3.21875 1.015625 L 2.453125 -7.28125 L 3.21875 -7.03125 L 3.828125 0.296875 L 6.25 -2.5625 Z M 5.96875 -6.09375 "/></g></g></g><g fill="#000000" fill-opacity="1"><g transform="translate(174.188929, 262.764587)"><g><path d="M 4.03125 0.546875 C 3.488281 0.472656 3.007812 0.300781 2.59375 0.03125 C 2.1875 -0.238281 1.847656 -0.570312 1.578125 -0.96875 C 1.304688 -1.363281 1.113281 -1.804688 1 -2.296875 C 0.882812 -2.785156 0.859375 -3.269531 0.921875 -3.75 C 0.984375 -4.257812 1.132812 -4.734375 1.375 -5.171875 C 1.613281 -5.617188 1.914062 -6.003906 2.28125 -6.328125 C 2.644531 -6.648438 3.054688 -6.882812 3.515625 -7.03125 C 3.972656 -7.1875 4.457031 -7.234375 4.96875 -7.171875 C 5.5 -7.109375 5.972656 -6.9375 6.390625 -6.65625 C 6.804688 -6.382812 7.144531 -6.046875 7.40625 -5.640625 C 7.675781 -5.234375 7.863281 -4.785156 7.96875 -4.296875 C 8.082031 -3.816406 8.113281 -3.335938 8.0625 -2.859375 C 8 -2.359375 7.847656 -1.882812 7.609375 -1.4375 C 7.378906 -1 7.082031 -0.617188 6.71875 -0.296875 C 6.351562 0.015625 5.941406 0.25 5.484375 0.40625 C 5.023438 0.5625 4.539062 0.609375 4.03125 0.546875 Z M 1.671875 -3.671875 C 1.617188 -3.253906 1.632812 -2.84375 1.71875 -2.4375 C 1.8125 -2.03125 1.960938 -1.660156 2.171875 -1.328125 C 2.390625 -1.003906 2.660156 -0.734375 2.984375 -0.515625 C 3.304688 -0.304688 3.679688 -0.175781 4.109375 -0.125 C 4.535156 -0.0703125 4.929688 -0.113281 5.296875 -0.25 C 5.671875 -0.394531 6 -0.601562 6.28125 -0.875 C 6.5625 -1.144531 6.789062 -1.460938 6.96875 -1.828125 C 7.144531 -2.191406 7.257812 -2.570312 7.3125 -2.96875 C 7.363281 -3.382812 7.34375 -3.789062 7.25 -4.1875 C 7.164062 -4.582031 7.015625 -4.941406 6.796875 -5.265625 C 6.578125 -5.597656 6.304688 -5.867188 5.984375 -6.078125 C 5.671875 -6.296875 5.304688 -6.429688 4.890625 -6.484375 C 4.453125 -6.535156 4.046875 -6.492188 3.671875 -6.359375 C 3.304688 -6.222656 2.976562 -6.015625 2.6875 -5.734375 C 2.40625 -5.460938 2.175781 -5.148438 2 -4.796875 C 1.832031 -4.441406 1.722656 -4.066406 1.671875 -3.671875 Z M 1.671875 -3.671875 "/></g></g></g><g fill="#000000" fill-opacity="1"><g transform="translate(187.0385, 263.918954)"><g><path d="M 0.96875 -0.03125 L 0.6875 -7.703125 L 3.921875 -7.828125 C 4.253906 -7.835938 4.5625 -7.773438 4.84375 -7.640625 C 5.125 -7.515625 5.367188 -7.34375 5.578125 -7.125 C 5.796875 -6.90625 5.96875 -6.648438 6.09375 -6.359375 C 6.21875 -6.078125 6.285156 -5.789062 6.296875 -5.5 C 6.304688 -5.21875 6.273438 -4.945312 6.203125 -4.6875 C 6.128906 -4.425781 6.019531 -4.1875 5.875 -3.96875 C 5.726562 -3.757812 5.550781 -3.582031 5.34375 -3.4375 C 5.144531 -3.289062 4.914062 -3.191406 4.65625 -3.140625 L 6.65625 -0.234375 L 5.796875 -0.203125 L 3.890625 -2.96875 L 1.625 -2.890625 L 1.71875 -0.0625 Z M 1.59375 -3.5625 L 4.109375 -3.65625 C 4.328125 -3.65625 4.523438 -3.707031 4.703125 -3.8125 C 4.878906 -3.925781 5.03125 -4.066406 5.15625 -4.234375 C 5.28125 -4.410156 5.375 -4.601562 5.4375 -4.8125 C 5.507812 -5.019531 5.539062 -5.238281 5.53125 -5.46875 C 5.519531 -5.695312 5.46875 -5.914062 5.375 -6.125 C 5.289062 -6.332031 5.175781 -6.515625 5.03125 -6.671875 C 4.882812 -6.828125 4.710938 -6.945312 4.515625 -7.03125 C 4.316406 -7.113281 4.113281 -7.148438 3.90625 -7.140625 L 1.46875 -7.0625 Z M 1.59375 -3.5625 "/></g></g></g><g fill="#000000" fill-opacity="1"><g transform="translate(198.81818, 263.124242)"><g><path d="M 0.953125 -0.171875 L -0.4375 -7.71875 L 0.296875 -7.859375 L 1.5625 -0.96875 L 5.9375 -1.765625 L 6.0625 -1.109375 Z M 0.953125 -0.171875 "/></g></g></g><g fill="#000000" fill-opacity="1"><g transform="translate(209.644123, 260.827583)"><g><path d="M 0.921875 -0.3125 L -1.578125 -7.5625 L 0.875 -8.40625 C 1.445312 -8.601562 1.984375 -8.679688 2.484375 -8.640625 C 2.984375 -8.609375 3.429688 -8.476562 3.828125 -8.25 C 4.234375 -8.019531 4.585938 -7.710938 4.890625 -7.328125 C 5.191406 -6.941406 5.429688 -6.5 5.609375 -6 C 5.796875 -5.445312 5.878906 -4.921875 5.859375 -4.421875 C 5.847656 -3.921875 5.75 -3.457031 5.5625 -3.03125 C 5.375 -2.601562 5.09375 -2.226562 4.71875 -1.90625 C 4.351562 -1.59375 3.90625 -1.34375 3.375 -1.15625 Z M 4.875 -5.75 C 4.71875 -6.1875 4.515625 -6.566406 4.265625 -6.890625 C 4.023438 -7.210938 3.742188 -7.46875 3.421875 -7.65625 C 3.097656 -7.84375 2.738281 -7.945312 2.34375 -7.96875 C 1.945312 -8 1.53125 -7.9375 1.09375 -7.78125 L -0.65625 -7.1875 L 1.40625 -1.203125 L 3.15625 -1.796875 C 3.601562 -1.953125 3.972656 -2.164062 4.265625 -2.4375 C 4.554688 -2.707031 4.769531 -3.015625 4.90625 -3.359375 C 5.050781 -3.710938 5.117188 -4.09375 5.109375 -4.5 C 5.097656 -4.90625 5.019531 -5.320312 4.875 -5.75 Z M 4.875 -5.75 "/></g></g></g><g clip-path="url(#81f6940646)"><path fill="#000000" d="M 41.140625 187.035156 C 42.558594 185.277344 45.398438 182.941406 48.664062 181.414062 C 51.929688 179.890625 55.628906 179.183594 59.78125 179.222656 C 63.933594 179.261719 68.539062 180.042969 74.160156 181.761719 C 79.78125 183.480469 86.417969 186.136719 92.347656 188.359375 C 98.277344 190.582031 103.511719 192.375 108.507812 193.003906 C 113.5 193.632812 118.261719 193.082031 121.875 191.652344 C 125.476562 190.214844 127.929688 187.894531 129.378906 186.167969 C 130.828125 184.4375 131.269531 183.308594 131.761719 182.351562 C 132.246094 181.394531 132.777344 180.613281 133 180.671875 C 133.222656 180.730469 133.144531 181.628906 132.757812 182.882812 C 132.371094 184.136719 131.675781 185.761719 129.851562 187.78125 C 128.027344 189.796875 125.050781 192.222656 122.007812 193.816406 C 118.964844 195.417969 115.835938 196.203125 111.546875 196.238281 C 107.25 196.277344 101.792969 195.574219 96.289062 194.097656 C 90.785156 192.609375 85.238281 190.347656 79.734375 188.011719 C 74.230469 185.675781 68.761719 183.25 63.480469 182.292969 C 58.1875 181.335938 53.078125 181.847656 49.1875 183.421875 C 45.292969 184.996094 42.628906 187.652344 41.246094 189.113281 C 39.875 190.582031 39.796875 190.851562 39.757812 190.40625 C 39.722656 189.960938 39.722656 188.792969 41.140625 187.035156 Z M 41.140625 187.035156 " fill-opacity="1" fill-rule="evenodd"/></g></svg>